<svg width="107" height="27" viewBox="0 0 107 27" fill="none" xmlns="http://www.w3.org/2000/svg">
<path d="M6.85639 0.588694C6.2067 -0.357335 4.53211 -0.10999 4.54722 0.950786L4.70083 6.93041C4.78393 9.91639 7.86367 12.3261 11.0592 11.8237L12.414 11.6121C13.2979 11.4719 13.6731 10.5131 13.1393 9.75319L6.85639 0.588694Z" fill="#F10909"/>
<path d="M17.8358 11.7092L16.5767 11.9157C15.7281 12.0559 15.3907 13.0428 15.9421 13.8486L24.0003 25.6191C25.0076 27.1032 26.7527 26.3101 26.3372 24.5991L24.3982 16.6382C23.6478 13.4967 20.6134 11.2502 17.8358 11.7092Z" fill="#F10909"/>
<path d="M12.5626 12.9227L0.916047 19.8254C-0.632635 20.7408 -0.108853 23.1403 1.6715 23.0103L10.2736 22.4085C13.8494 22.1561 16.01 18.6779 15.0431 15.2993L14.6401 13.8866C14.3783 12.9559 13.3206 12.4739 12.5626 12.9227Z" fill="#F10909"/>
<path d="M23.484 3.92171L17.7375 3.69222C15.043 3.58512 13.2274 5.79082 14.0332 8.51161L14.4009 9.76109C14.6527 10.6102 15.6776 11.0794 16.3751 10.6638L24.5063 5.84692C25.3147 5.36753 24.5542 3.96506 23.484 3.92171Z" fill="#F10909"/>
<g clip-path="url(#clip0_331_47)">
<path d="M44.9298 7.72497H39.1543V20.7036H36.9794V7.72497H31.2V5.69611H44.9298V7.72497Z" fill="black"/>
<path d="M50.5321 7.90724L45.2963 20.7037H42.9684L49.0932 5.70117H51.9528L58.0766 20.7087H55.7447L50.5321 7.90724Z" fill="black"/>
<path d="M65.6251 21.0488C61.0821 21.0488 58.1007 17.7835 58.1007 13.2203C58.1007 8.61687 61.1213 5.35156 65.6855 5.35156C69.562 5.35156 71.9936 7.70363 72.7025 11.4351H70.4682C69.8641 8.94109 68.237 7.44084 65.6211 7.44084C62.3558 7.44084 60.3279 9.83318 60.3279 13.2002C60.3279 16.5672 62.3558 18.9595 65.5808 18.9595C68.1564 18.9595 69.9406 17.3979 70.4682 14.924H72.6984C71.9523 18.8176 69.2962 21.0488 65.6251 21.0488Z" fill="black"/>
<path d="M86.7042 7.72497H80.9247V20.7036H78.7549V7.72497H72.9744V5.69611H86.7042V7.72497Z" fill="black"/>
<path d="M90.2876 5.69611V20.7036H88.1178V5.69611H90.2876Z" fill="black"/>
<path d="M91.6761 5.69611H94.0091L98.9368 18.3717L103.844 5.69611H106.177L100.356 20.7036H97.4969L91.6761 5.69611Z" fill="black"/>
</g>
<defs>
<clipPath id="clip0_331_47">
<rect width="74.9773" height="15.6972" fill="white" transform="translate(31.2 5.35138)"/>
</clipPath>
</defs>
</svg>
